<svg width="120" height="120" viewBox="0 0 120 120" fill="none" xmlns="http://www.w3.org/2000/svg">
  <ellipse cx="60" cy="60" rx="48" ry="28" fill="#232136" stroke="#F984FC" stroke-width="4"/>
  <ellipse cx="60" cy="60" rx="16" ry="16" fill="#AF13F2" stroke="#A01AD9" stroke-width="3"/>
  <ellipse cx="60" cy="60" rx="7" ry="7" fill="#fff"/>

  <!-- Mehrere Diagramm-Linien und Knoten im Auge -->
  <polyline points="50,55 60,60 70,50" fill="none" stroke="#6805F2" stroke-width="2" stroke-linecap="round"/>
  <polyline points="60,60 75,70 85,60" fill="none" stroke="#6805F2" stroke-width="2" stroke-linecap="round"/>
  <polyline points="60,60 45,70 35,60" fill="none" stroke="#6805F2" stroke-width="2" stroke-linecap="round"/>
  <polyline points="60,60 60,75" fill="none" stroke="#6805F2" stroke-width="2" stroke-linecap="round"/>

  <!-- Runde Knoten -->
  <circle cx="60" cy="60" r="4" fill="#F984FC" stroke="#6805F2" stroke-width="2"/>
  <circle cx="70" cy="50" r="3" fill="#F984FC" stroke="#6805F2" stroke-width="2"/>
  <circle cx="60" cy="75" r="3" fill="#F984FC" stroke="#6805F2" stroke-width="2"/>

  <!-- Quadratische Knoten -->
  <rect x="47" y="52" width="6" height="6" rx="1" fill="#F984FC" stroke="#6805F2" stroke-width="2"/>
  <rect x="72" y="67" width="8" height="8" rx="1" fill="#F984FC" stroke="#6805F2" stroke-width="2"/>
  <rect x="82" y="57" width="6" height="6" rx="1" fill="#F984FC" stroke="#6805F2" stroke-width="2"/>
  <rect x="42" y="67" width="6" height="6" rx="1" fill="#F984FC" stroke="#6805F2" stroke-width="2"/>
  <rect x="32" y="57" width="8" height="8" rx="1" fill="#F984FC" stroke="#6805F2" stroke-width="2"/>
</svg> 